<?xml version="1.0" standalone="no"?>
<!DOCTYPE svg PUBLIC "-//W3C//DTD SVG 20010904//EN"
 "http://www.w3.org/TR/2001/REC-SVG-20010904/DTD/svg10.dtd">
<svg version="1.0" xmlns="http://www.w3.org/2000/svg"
 width="383.000000pt" height="347.000000pt" viewBox="0 0 383.000000 347.000000"
 preserveAspectRatio="xMidYMid meet">

<g transform="translate(0.000000,347.000000) scale(0.100000,-0.100000)"
fill="#000000" stroke="none">
<path d="M2639 2923 c-13 -17 -13 -17 6 -3 11 8 22 16 24 17 2 2 0 3 -6 3 -6
0 -17 -8 -24 -17z"/>
<path d="M2539 2823 c-13 -16 -12 -17 4 -4 16 13 21 21 13 21 -2 0 -10 -8 -17
-17z"/>
<path d="M1060 2816 c0 -3 9 -10 20 -16 11 -6 20 -8 20 -6 0 3 -9 10 -20 16
-11 6 -20 8 -20 6z"/>
<path d="M1730 2758 c-209 -19 -467 -92 -539 -152 -119 -99 -172 -220 -192
-438 -13 -145 1 -355 31 -452 40 -129 126 -211 262 -250 261 -75 867 -56 1148
36 274 89 351 230 320 589 -36 422 -133 573 -410 638 -169 40 -397 50 -620 29z
m371 -75 c61 -12 -97 -32 -304 -38 -270 -8 -275 12 -12 46 65 8 261 3 316 -8z
m178 -288 c46 -39 66 -104 66 -215 0 -106 -17 -152 -68 -180 -24 -13 -30 -13
-54 0 -49 27 -77 93 -81 193 -5 107 10 168 50 202 37 31 49 31 87 0z m-741
-58 c34 -36 54 -97 59 -182 6 -97 -8 -158 -47 -197 -36 -36 -61 -35 -97 1 -36
36 -52 85 -60 182 -12 157 73 273 145 196z m562 -522 c0 -32 -52 -90 -104
-117 -31 -16 -60 -22 -116 -22 -65 -1 -82 3 -129 29 -57 31 -98 82 -81 99 6 6
28 5 61 -2 85 -20 195 -15 269 12 86 32 100 32 100 1z m549 -181 c-70 -73
-175 -116 -379 -157 -297 -60 -709 -63 -920 -7 -108 29 -180 60 -180 77 0 8
-4 12 -9 9 -5 -3 -11 0 -14 7 -3 8 34 -6 81 -30 72 -35 105 -45 192 -58 464
-65 1063 17 1204 164 17 17 37 31 45 31 10 0 3 -12 -20 -36z"/>
<path d="M1155 2716 c10 -14 19 -26 22 -26 7 0 -17 39 -28 46 -6 3 -3 -5 6
-20z"/>
<path d="M2834 2714 c4 -10 17 -55 29 -99 21 -76 22 -101 22 -490 0 -462 -1
-470 -70 -564 -125 -169 -502 -270 -1005 -271 -321 0 -514 29 -674 104 -190
87 -242 223 -266 686 -6 118 -13 235 -16 260 l-6 45 -15 -29 c-13 -25 -13 -64
-4 -302 8 -193 8 -280 1 -294 -15 -27 -52 -35 -86 -17 -58 30 -63 44 -74 188
-15 196 -20 239 -32 239 -12 0 -5 -412 8 -445 29 -77 109 -146 185 -160 34 -6
40 -13 73 -80 20 -40 48 -82 63 -94 16 -11 40 -30 56 -42 15 -11 25 -24 22
-29 -6 -9 101 -58 169 -76 75 -21 224 -44 278 -44 26 0 49 -4 53 -10 10 -16
-17 -48 -46 -54 -15 -3 -36 -14 -46 -24 -10 -11 -43 -27 -73 -36 -61 -17 -120
-50 -120 -66 0 -5 18 -10 39 -10 46 0 71 -26 71 -73 0 -83 -145 -252 -268
-314 -31 -15 -58 -31 -60 -35 -2 -5 -23 19 -47 51 -24 32 -49 62 -56 67 -7 4
-1 -8 14 -27 21 -29 57 -98 57 -112 0 -4 -31 -6 -102 -7 -60 -1 -91 11 -107
45 -9 20 -10 20 -10 0 -1 -35 36 -82 84 -105 136 -66 345 34 501 240 27 36 57
77 66 90 l17 25 0 -31 c1 -16 5 -34 10 -40 6 -5 20 -47 32 -94 28 -111 44
-150 93 -234 51 -87 138 -154 241 -188 97 -32 281 -32 369 1 119 43 216 123
259 215 33 69 68 176 62 186 -3 4 1 10 8 13 9 3 12 16 9 37 -2 17 1 64 9 105
l13 73 115 -118 c150 -152 256 -210 381 -210 88 0 182 73 179 139 -2 22 -2 23
-6 5 -8 -44 -38 -58 -121 -59 -42 0 -80 -4 -84 -10 -19 -26 -5 28 20 78 16 31
22 52 15 45 -8 -6 -23 -29 -34 -50 -22 -44 -24 -44 -117 -2 -157 70 -316 279
-257 337 9 9 28 17 43 18 15 0 36 4 46 8 17 6 11 12 -35 34 -29 14 -71 29 -92
33 -20 3 -54 15 -74 25 -21 11 -43 19 -49 19 -16 0 -56 55 -47 64 3 3 15 6 25
6 10 0 74 18 141 40 127 42 233 94 251 124 6 9 27 35 47 57 21 23 49 72 65
114 28 70 31 74 70 84 97 25 176 125 176 224 0 39 -17 359 -21 410 -1 4 -8 7
-16 7 -13 0 -15 -28 -15 -194 l0 -194 -42 -37 c-37 -31 -48 -36 -87 -33 -42 3
-46 5 -54 38 -5 19 -11 157 -12 305 l-2 270 -60 126 c-33 69 -66 130 -73 134
-10 6 -12 3 -6 -11z m-523 -1707 c20 -12 49 -37 64 -54 75 -91 88 -292 20
-309 -13 -3 -49 -4 -79 -2 -30 1 -52 0 -49 -4 2 -5 37 -8 78 -8 l74 0 -32 -56
c-60 -107 -169 -191 -275 -213 -107 -22 -220 -11 -308 31 -55 25 -136 100
-162 148 -10 19 -29 37 -43 41 -16 5 -2 7 38 8 34 1 65 6 68 11 4 6 -16 10
-53 10 l-59 0 -16 60 c-33 118 -18 212 46 278 56 59 69 62 269 63 101 1 208 4
238 9 103 14 143 11 181 -13z"/>
<path d="M1809 733 c-13 -16 -12 -17 4 -4 16 13 21 21 13 21 -2 0 -10 -8 -17
-17z"/>
<path d="M1759 683 c-13 -16 -12 -17 4 -4 16 13 21 21 13 21 -2 0 -10 -8 -17
-17z"/>
<path d="M2230 686 c0 -2 8 -10 18 -17 15 -13 16 -12 3 4 -13 16 -21 21 -21
13z"/>
<path d="M1735 649 c-4 -6 -5 -12 -2 -15 2 -3 7 2 10 11 7 17 1 20 -8 4z"/>
<path d="M3144 834 c-18 -14 -18 -14 6 -3 31 14 36 19 24 19 -6 0 -19 -7 -30
-16z"/>
<path d="M850 743 c8 -3 24 -10 35 -15 20 -9 20 -9 1 6 -11 9 -27 16 -35 15
-14 0 -14 -1 -1 -6z"/>
</g>
</svg>
